<mxfile host="app.diagrams.net" agent="Mozilla/5.0 (Windows NT 10.0; Win64; x64; rv:141.0) Gecko/20100101 Firefox/141.0" version="28.0.7">
  <diagram name="Page-1" id="WPqpocY5NYO2JMIDDQZu">
    <mxGraphModel dx="1042" dy="510" grid="1" gridSize="10" guides="1" tooltips="1" connect="1" arrows="1" fold="1" page="1" pageScale="1" pageWidth="850" pageHeight="1900" background="#ffffff" math="0" shadow="0">
      <root>
        <mxCell id="0" />
        <mxCell id="1" parent="0" />
        <mxCell id="aFjqrJb6DufjrJTZvq-2-1" value="&lt;h1 style=&quot;margin-top: 0px;&quot;&gt;mTLS (Mutual TLS) 1.2&lt;/h1&gt;&lt;p&gt;Both client and server have X.509 certificate + private key, trusted CA root(s), supported cipher suites,&amp;nbsp;OCSP stapling enabled (optional).&lt;/p&gt;" style="text;html=1;whiteSpace=wrap;overflow=hidden;rounded=0;" vertex="1" parent="1">
          <mxGeometry x="40" y="40" width="450" height="90" as="geometry" />
        </mxCell>
        <mxCell id="aFjqrJb6DufjrJTZvq-2-6" value="Server" style="shape=umlLifeline;perimeter=lifelinePerimeter;whiteSpace=wrap;html=1;container=1;dropTarget=0;collapsible=0;recursiveResize=0;outlineConnect=0;portConstraint=eastwest;newEdgeStyle={&quot;curved&quot;:0,&quot;rounded&quot;:0};" vertex="1" parent="1">
          <mxGeometry x="400" y="160" width="100" height="1720" as="geometry" />
        </mxCell>
        <mxCell id="aFjqrJb6DufjrJTZvq-2-7" value="" style="html=1;points=[[0,0,0,0,5],[0,1,0,0,-5],[1,0,0,0,5],[1,1,0,0,-5]];perimeter=orthogonalPerimeter;outlineConnect=0;targetShapes=umlLifeline;portConstraint=eastwest;newEdgeStyle={&quot;curved&quot;:0,&quot;rounded&quot;:0};" vertex="1" parent="aFjqrJb6DufjrJTZvq-2-6">
          <mxGeometry x="45" y="130" width="10" height="190" as="geometry" />
        </mxCell>
        <mxCell id="aFjqrJb6DufjrJTZvq-2-49" value="" style="html=1;points=[[0,0,0,0,5],[0,1,0,0,-5],[1,0,0,0,5],[1,1,0,0,-5]];perimeter=orthogonalPerimeter;outlineConnect=0;targetShapes=umlLifeline;portConstraint=eastwest;newEdgeStyle={&quot;curved&quot;:0,&quot;rounded&quot;:0};" vertex="1" parent="aFjqrJb6DufjrJTZvq-2-6">
          <mxGeometry x="45" y="670" width="10" height="10" as="geometry" />
        </mxCell>
        <mxCell id="aFjqrJb6DufjrJTZvq-2-44" value="" style="html=1;points=[[0,0,0,0,5],[0,1,0,0,-5],[1,0,0,0,5],[1,1,0,0,-5]];perimeter=orthogonalPerimeter;outlineConnect=0;targetShapes=umlLifeline;portConstraint=eastwest;newEdgeStyle={&quot;curved&quot;:0,&quot;rounded&quot;:0};" vertex="1" parent="aFjqrJb6DufjrJTZvq-2-6">
          <mxGeometry x="45" y="760" width="10" height="100" as="geometry" />
        </mxCell>
        <mxCell id="aFjqrJb6DufjrJTZvq-2-57" value="" style="html=1;points=[[0,0,0,0,5],[0,1,0,0,-5],[1,0,0,0,5],[1,1,0,0,-5]];perimeter=orthogonalPerimeter;outlineConnect=0;targetShapes=umlLifeline;portConstraint=eastwest;newEdgeStyle={&quot;curved&quot;:0,&quot;rounded&quot;:0};" vertex="1" parent="aFjqrJb6DufjrJTZvq-2-6">
          <mxGeometry x="40" y="790" width="10" height="10" as="geometry" />
        </mxCell>
        <mxCell id="aFjqrJb6DufjrJTZvq-2-61" value="" style="html=1;points=[[0,0,0,0,5],[0,1,0,0,-5],[1,0,0,0,5],[1,1,0,0,-5]];perimeter=orthogonalPerimeter;outlineConnect=0;targetShapes=umlLifeline;portConstraint=eastwest;newEdgeStyle={&quot;curved&quot;:0,&quot;rounded&quot;:0};" vertex="1" parent="aFjqrJb6DufjrJTZvq-2-6">
          <mxGeometry x="45" y="880" width="10" height="50" as="geometry" />
        </mxCell>
        <mxCell id="aFjqrJb6DufjrJTZvq-2-65" value="" style="html=1;points=[[0,0,0,0,5],[0,1,0,0,-5],[1,0,0,0,5],[1,1,0,0,-5]];perimeter=orthogonalPerimeter;outlineConnect=0;targetShapes=umlLifeline;portConstraint=eastwest;newEdgeStyle={&quot;curved&quot;:0,&quot;rounded&quot;:0};" vertex="1" parent="aFjqrJb6DufjrJTZvq-2-6">
          <mxGeometry x="45" y="1050" width="10" height="50" as="geometry" />
        </mxCell>
        <mxCell id="aFjqrJb6DufjrJTZvq-2-73" value="" style="html=1;points=[[0,0,0,0,5],[0,1,0,0,-5],[1,0,0,0,5],[1,1,0,0,-5]];perimeter=orthogonalPerimeter;outlineConnect=0;targetShapes=umlLifeline;portConstraint=eastwest;newEdgeStyle={&quot;curved&quot;:0,&quot;rounded&quot;:0};" vertex="1" parent="aFjqrJb6DufjrJTZvq-2-6">
          <mxGeometry x="45" y="1120" width="10" height="10" as="geometry" />
        </mxCell>
        <mxCell id="aFjqrJb6DufjrJTZvq-2-87" value="" style="html=1;points=[[0,0,0,0,5],[0,1,0,0,-5],[1,0,0,0,5],[1,1,0,0,-5]];perimeter=orthogonalPerimeter;outlineConnect=0;targetShapes=umlLifeline;portConstraint=eastwest;newEdgeStyle={&quot;curved&quot;:0,&quot;rounded&quot;:0};" vertex="1" parent="aFjqrJb6DufjrJTZvq-2-6">
          <mxGeometry x="45" y="1200" width="10" height="10" as="geometry" />
        </mxCell>
        <mxCell id="aFjqrJb6DufjrJTZvq-2-91" style="edgeStyle=orthogonalEdgeStyle;rounded=0;orthogonalLoop=1;jettySize=auto;html=1;curved=0;exitX=1;exitY=0;exitDx=0;exitDy=5;exitPerimeter=0;" edge="1" parent="aFjqrJb6DufjrJTZvq-2-6" source="aFjqrJb6DufjrJTZvq-2-87" target="aFjqrJb6DufjrJTZvq-2-87">
          <mxGeometry relative="1" as="geometry" />
        </mxCell>
        <mxCell id="aFjqrJb6DufjrJTZvq-2-92" value="" style="html=1;points=[[0,0,0,0,5],[0,1,0,0,-5],[1,0,0,0,5],[1,1,0,0,-5]];perimeter=orthogonalPerimeter;outlineConnect=0;targetShapes=umlLifeline;portConstraint=eastwest;newEdgeStyle={&quot;curved&quot;:0,&quot;rounded&quot;:0};" vertex="1" parent="aFjqrJb6DufjrJTZvq-2-6">
          <mxGeometry x="45" y="1250" width="10" height="10" as="geometry" />
        </mxCell>
        <mxCell id="aFjqrJb6DufjrJTZvq-2-95" value="" style="html=1;points=[[0,0,0,0,5],[0,1,0,0,-5],[1,0,0,0,5],[1,1,0,0,-5]];perimeter=orthogonalPerimeter;outlineConnect=0;targetShapes=umlLifeline;portConstraint=eastwest;newEdgeStyle={&quot;curved&quot;:0,&quot;rounded&quot;:0};" vertex="1" parent="aFjqrJb6DufjrJTZvq-2-6">
          <mxGeometry x="45" y="1390" width="10" height="10" as="geometry" />
        </mxCell>
        <mxCell id="aFjqrJb6DufjrJTZvq-2-98" value="" style="html=1;points=[[0,0,0,0,5],[0,1,0,0,-5],[1,0,0,0,5],[1,1,0,0,-5]];perimeter=orthogonalPerimeter;outlineConnect=0;targetShapes=umlLifeline;portConstraint=eastwest;newEdgeStyle={&quot;curved&quot;:0,&quot;rounded&quot;:0};" vertex="1" parent="aFjqrJb6DufjrJTZvq-2-6">
          <mxGeometry x="45" y="1440" width="10" height="10" as="geometry" />
        </mxCell>
        <mxCell id="aFjqrJb6DufjrJTZvq-2-101" value="" style="html=1;points=[[0,0,0,0,5],[0,1,0,0,-5],[1,0,0,0,5],[1,1,0,0,-5]];perimeter=orthogonalPerimeter;outlineConnect=0;targetShapes=umlLifeline;portConstraint=eastwest;newEdgeStyle={&quot;curved&quot;:0,&quot;rounded&quot;:0};" vertex="1" parent="aFjqrJb6DufjrJTZvq-2-6">
          <mxGeometry x="45" y="1580" width="10" height="10" as="geometry" />
        </mxCell>
        <mxCell id="aFjqrJb6DufjrJTZvq-2-104" value="" style="html=1;points=[[0,0,0,0,5],[0,1,0,0,-5],[1,0,0,0,5],[1,1,0,0,-5]];perimeter=orthogonalPerimeter;outlineConnect=0;targetShapes=umlLifeline;portConstraint=eastwest;newEdgeStyle={&quot;curved&quot;:0,&quot;rounded&quot;:0};" vertex="1" parent="aFjqrJb6DufjrJTZvq-2-6">
          <mxGeometry x="45" y="1680" width="10" height="10" as="geometry" />
        </mxCell>
        <mxCell id="aFjqrJb6DufjrJTZvq-2-2" value="Client" style="shape=umlLifeline;perimeter=lifelinePerimeter;whiteSpace=wrap;html=1;container=1;dropTarget=0;collapsible=0;recursiveResize=0;outlineConnect=0;portConstraint=eastwest;newEdgeStyle={&quot;curved&quot;:0,&quot;rounded&quot;:0};" vertex="1" parent="1">
          <mxGeometry x="40" y="160" width="100" height="1720" as="geometry" />
        </mxCell>
        <mxCell id="aFjqrJb6DufjrJTZvq-2-3" value="" style="html=1;points=[[0,0,0,0,5],[0,1,0,0,-5],[1,0,0,0,5],[1,1,0,0,-5]];perimeter=orthogonalPerimeter;outlineConnect=0;targetShapes=umlLifeline;portConstraint=eastwest;newEdgeStyle={&quot;curved&quot;:0,&quot;rounded&quot;:0};" vertex="1" parent="aFjqrJb6DufjrJTZvq-2-2">
          <mxGeometry x="45" y="130" width="10" height="190" as="geometry" />
        </mxCell>
        <mxCell id="aFjqrJb6DufjrJTZvq-2-34" value="" style="html=1;points=[[0,0,0,0,5],[0,1,0,0,-5],[1,0,0,0,5],[1,1,0,0,-5]];perimeter=orthogonalPerimeter;outlineConnect=0;targetShapes=umlLifeline;portConstraint=eastwest;newEdgeStyle={&quot;curved&quot;:0,&quot;rounded&quot;:0};" vertex="1" parent="aFjqrJb6DufjrJTZvq-2-2">
          <mxGeometry x="45" y="360" width="10" height="50" as="geometry" />
        </mxCell>
        <mxCell id="aFjqrJb6DufjrJTZvq-2-47" value="" style="html=1;points=[[0,0,0,0,5],[0,1,0,0,-5],[1,0,0,0,5],[1,1,0,0,-5]];perimeter=orthogonalPerimeter;outlineConnect=0;targetShapes=umlLifeline;portConstraint=eastwest;newEdgeStyle={&quot;curved&quot;:0,&quot;rounded&quot;:0};" vertex="1" parent="aFjqrJb6DufjrJTZvq-2-2">
          <mxGeometry x="45" y="670" width="10" height="10" as="geometry" />
        </mxCell>
        <mxCell id="aFjqrJb6DufjrJTZvq-2-70" value="" style="html=1;points=[[0,0,0,0,5],[0,1,0,0,-5],[1,0,0,0,5],[1,1,0,0,-5]];perimeter=orthogonalPerimeter;outlineConnect=0;targetShapes=umlLifeline;portConstraint=eastwest;newEdgeStyle={&quot;curved&quot;:0,&quot;rounded&quot;:0};" vertex="1" parent="aFjqrJb6DufjrJTZvq-2-2">
          <mxGeometry x="45" y="1120" width="10" height="10" as="geometry" />
        </mxCell>
        <mxCell id="aFjqrJb6DufjrJTZvq-2-84" value="" style="html=1;points=[[0,0,0,0,5],[0,1,0,0,-5],[1,0,0,0,5],[1,1,0,0,-5]];perimeter=orthogonalPerimeter;outlineConnect=0;targetShapes=umlLifeline;portConstraint=eastwest;newEdgeStyle={&quot;curved&quot;:0,&quot;rounded&quot;:0};" vertex="1" parent="aFjqrJb6DufjrJTZvq-2-2">
          <mxGeometry x="45" y="1200" width="10" height="10" as="geometry" />
        </mxCell>
        <mxCell id="aFjqrJb6DufjrJTZvq-2-88" value="" style="html=1;points=[[0,0,0,0,5],[0,1,0,0,-5],[1,0,0,0,5],[1,1,0,0,-5]];perimeter=orthogonalPerimeter;outlineConnect=0;targetShapes=umlLifeline;portConstraint=eastwest;newEdgeStyle={&quot;curved&quot;:0,&quot;rounded&quot;:0};" vertex="1" parent="aFjqrJb6DufjrJTZvq-2-2">
          <mxGeometry x="45" y="1250" width="10" height="10" as="geometry" />
        </mxCell>
        <mxCell id="aFjqrJb6DufjrJTZvq-2-93" value="" style="html=1;points=[[0,0,0,0,5],[0,1,0,0,-5],[1,0,0,0,5],[1,1,0,0,-5]];perimeter=orthogonalPerimeter;outlineConnect=0;targetShapes=umlLifeline;portConstraint=eastwest;newEdgeStyle={&quot;curved&quot;:0,&quot;rounded&quot;:0};" vertex="1" parent="aFjqrJb6DufjrJTZvq-2-2">
          <mxGeometry x="45" y="1390" width="10" height="10" as="geometry" />
        </mxCell>
        <mxCell id="aFjqrJb6DufjrJTZvq-2-96" value="" style="html=1;points=[[0,0,0,0,5],[0,1,0,0,-5],[1,0,0,0,5],[1,1,0,0,-5]];perimeter=orthogonalPerimeter;outlineConnect=0;targetShapes=umlLifeline;portConstraint=eastwest;newEdgeStyle={&quot;curved&quot;:0,&quot;rounded&quot;:0};" vertex="1" parent="aFjqrJb6DufjrJTZvq-2-2">
          <mxGeometry x="45" y="1440" width="10" height="10" as="geometry" />
        </mxCell>
        <mxCell id="aFjqrJb6DufjrJTZvq-2-99" value="" style="html=1;points=[[0,0,0,0,5],[0,1,0,0,-5],[1,0,0,0,5],[1,1,0,0,-5]];perimeter=orthogonalPerimeter;outlineConnect=0;targetShapes=umlLifeline;portConstraint=eastwest;newEdgeStyle={&quot;curved&quot;:0,&quot;rounded&quot;:0};" vertex="1" parent="aFjqrJb6DufjrJTZvq-2-2">
          <mxGeometry x="45" y="1580" width="10" height="10" as="geometry" />
        </mxCell>
        <mxCell id="aFjqrJb6DufjrJTZvq-2-102" value="" style="html=1;points=[[0,0,0,0,5],[0,1,0,0,-5],[1,0,0,0,5],[1,1,0,0,-5]];perimeter=orthogonalPerimeter;outlineConnect=0;targetShapes=umlLifeline;portConstraint=eastwest;newEdgeStyle={&quot;curved&quot;:0,&quot;rounded&quot;:0};" vertex="1" parent="aFjqrJb6DufjrJTZvq-2-2">
          <mxGeometry x="45" y="1680" width="10" height="10" as="geometry" />
        </mxCell>
        <mxCell id="aFjqrJb6DufjrJTZvq-2-14" value="CA/CRL/OCSP" style="shape=umlLifeline;perimeter=lifelinePerimeter;whiteSpace=wrap;html=1;container=1;dropTarget=0;collapsible=0;recursiveResize=0;outlineConnect=0;portConstraint=eastwest;newEdgeStyle={&quot;curved&quot;:0,&quot;rounded&quot;:0};" vertex="1" parent="1">
          <mxGeometry x="720" y="160" width="100" height="1720" as="geometry" />
        </mxCell>
        <mxCell id="aFjqrJb6DufjrJTZvq-2-35" value="" style="html=1;points=[[0,0,0,0,5],[0,1,0,0,-5],[1,0,0,0,5],[1,1,0,0,-5]];perimeter=orthogonalPerimeter;outlineConnect=0;targetShapes=umlLifeline;portConstraint=eastwest;newEdgeStyle={&quot;curved&quot;:0,&quot;rounded&quot;:0};" vertex="1" parent="aFjqrJb6DufjrJTZvq-2-14">
          <mxGeometry x="45" y="360" width="10" height="50" as="geometry" />
        </mxCell>
        <mxCell id="aFjqrJb6DufjrJTZvq-2-42" value="" style="html=1;points=[[0,0,0,0,5],[0,1,0,0,-5],[1,0,0,0,5],[1,1,0,0,-5]];perimeter=orthogonalPerimeter;outlineConnect=0;targetShapes=umlLifeline;portConstraint=eastwest;newEdgeStyle={&quot;curved&quot;:0,&quot;rounded&quot;:0};" vertex="1" parent="aFjqrJb6DufjrJTZvq-2-14">
          <mxGeometry x="-635" y="760" width="10" height="100" as="geometry" />
        </mxCell>
        <mxCell id="aFjqrJb6DufjrJTZvq-2-41" value="" style="html=1;points=[[0,0,0,0,5],[0,1,0,0,-5],[1,0,0,0,5],[1,1,0,0,-5]];perimeter=orthogonalPerimeter;outlineConnect=0;targetShapes=umlLifeline;portConstraint=eastwest;newEdgeStyle={&quot;curved&quot;:0,&quot;rounded&quot;:0};" vertex="1" parent="aFjqrJb6DufjrJTZvq-2-14">
          <mxGeometry x="-635" y="530" width="10" height="50" as="geometry" />
        </mxCell>
        <mxCell id="aFjqrJb6DufjrJTZvq-2-38" value="" style="html=1;points=[[0,0,0,0,5],[0,1,0,0,-5],[1,0,0,0,5],[1,1,0,0,-5]];perimeter=orthogonalPerimeter;outlineConnect=0;targetShapes=umlLifeline;portConstraint=eastwest;newEdgeStyle={&quot;curved&quot;:0,&quot;rounded&quot;:0};" vertex="1" parent="aFjqrJb6DufjrJTZvq-2-14">
          <mxGeometry x="45" y="530" width="10" height="50" as="geometry" />
        </mxCell>
        <mxCell id="aFjqrJb6DufjrJTZvq-2-39" value="&lt;div&gt;Verify Server Certificate&lt;/div&gt;&lt;div align=&quot;left&quot;&gt;&lt;ul&gt;&lt;li&gt;Chain to Trusted CA&lt;/li&gt;&lt;li&gt;Validity Dates&lt;/li&gt;&lt;li&gt;Hostname Match&lt;/li&gt;&lt;li&gt;EKU: serverAuth&lt;/li&gt;&lt;li&gt;Revocation Status&lt;/li&gt;&lt;/ul&gt;&lt;/div&gt;" style="html=1;verticalAlign=bottom;endArrow=classic;curved=0;rounded=0;exitX=1;exitY=0;exitDx=0;exitDy=5;exitPerimeter=0;entryX=0;entryY=0;entryDx=0;entryDy=5;entryPerimeter=0;endFill=1;" edge="1" parent="aFjqrJb6DufjrJTZvq-2-14" target="aFjqrJb6DufjrJTZvq-2-38" source="aFjqrJb6DufjrJTZvq-2-41">
          <mxGeometry width="80" relative="1" as="geometry">
            <mxPoint x="-625" y="535" as="sourcePoint" />
            <mxPoint x="-130" y="590" as="targetPoint" />
            <mxPoint as="offset" />
          </mxGeometry>
        </mxCell>
        <mxCell id="aFjqrJb6DufjrJTZvq-2-40" value="Server Certificate Verified" style="html=1;verticalAlign=bottom;endArrow=none;curved=0;rounded=0;entryX=0;entryY=1;entryDx=0;entryDy=-5;entryPerimeter=0;startArrow=open;startFill=0;endFill=0;shadow=0;dashed=1;exitX=1;exitY=1;exitDx=0;exitDy=-5;exitPerimeter=0;" edge="1" parent="aFjqrJb6DufjrJTZvq-2-14" target="aFjqrJb6DufjrJTZvq-2-38" source="aFjqrJb6DufjrJTZvq-2-41">
          <mxGeometry x="0.0026" width="80" relative="1" as="geometry">
            <mxPoint x="-625" y="575" as="sourcePoint" />
            <mxPoint x="-30" y="630" as="targetPoint" />
            <mxPoint as="offset" />
          </mxGeometry>
        </mxCell>
        <mxCell id="aFjqrJb6DufjrJTZvq-2-64" value="" style="html=1;points=[[0,0,0,0,5],[0,1,0,0,-5],[1,0,0,0,5],[1,1,0,0,-5]];perimeter=orthogonalPerimeter;outlineConnect=0;targetShapes=umlLifeline;portConstraint=eastwest;newEdgeStyle={&quot;curved&quot;:0,&quot;rounded&quot;:0};" vertex="1" parent="aFjqrJb6DufjrJTZvq-2-14">
          <mxGeometry x="45" y="880" width="10" height="50" as="geometry" />
        </mxCell>
        <mxCell id="aFjqrJb6DufjrJTZvq-2-68" value="" style="html=1;points=[[0,0,0,0,5],[0,1,0,0,-5],[1,0,0,0,5],[1,1,0,0,-5]];perimeter=orthogonalPerimeter;outlineConnect=0;targetShapes=umlLifeline;portConstraint=eastwest;newEdgeStyle={&quot;curved&quot;:0,&quot;rounded&quot;:0};" vertex="1" parent="aFjqrJb6DufjrJTZvq-2-14">
          <mxGeometry x="45" y="1050" width="10" height="50" as="geometry" />
        </mxCell>
        <mxCell id="aFjqrJb6DufjrJTZvq-2-22" value="&lt;div&gt;ClientHello&lt;/div&gt;&lt;div align=&quot;left&quot;&gt;&lt;ul&gt;&lt;li&gt;TLS Version 1.2&lt;/li&gt;&lt;li&gt;Supported Cipher Suites&lt;/li&gt;&lt;li&gt;Compression Mode&lt;/li&gt;&lt;li&gt;Random (28 bytes)&lt;/li&gt;&lt;/ul&gt;&lt;/div&gt;" style="html=1;verticalAlign=bottom;endArrow=classic;curved=0;rounded=0;exitX=1;exitY=0;exitDx=0;exitDy=5;exitPerimeter=0;entryX=0;entryY=0;entryDx=0;entryDy=5;entryPerimeter=0;endFill=1;" edge="1" parent="1" source="aFjqrJb6DufjrJTZvq-2-3" target="aFjqrJb6DufjrJTZvq-2-7">
          <mxGeometry width="80" relative="1" as="geometry">
            <mxPoint x="70" y="250" as="sourcePoint" />
            <mxPoint x="260" y="250" as="targetPoint" />
            <mxPoint as="offset" />
          </mxGeometry>
        </mxCell>
        <mxCell id="aFjqrJb6DufjrJTZvq-2-27" value="&lt;div&gt;ServerHello&lt;/div&gt;&lt;div align=&quot;left&quot;&gt;&lt;ul&gt;&lt;li&gt;Selected TLS version&lt;/li&gt;&lt;li&gt;Server Random (28 bytes)&lt;/li&gt;&lt;li&gt;Session ID&lt;/li&gt;&lt;li&gt;Selected Cipher Suite&lt;/li&gt;&lt;li&gt;Selected Compression&lt;/li&gt;&lt;li&gt;Extensions&lt;/li&gt;&lt;li&gt;Certificate (X.509 Cert Signed By CA)&lt;/li&gt;&lt;li&gt;Public Key&lt;/li&gt;&lt;/ul&gt;&lt;/div&gt;" style="html=1;verticalAlign=bottom;endArrow=none;curved=0;rounded=0;entryX=0;entryY=1;entryDx=0;entryDy=-5;entryPerimeter=0;startArrow=open;startFill=0;endFill=0;shadow=0;dashed=1;exitX=1;exitY=1;exitDx=0;exitDy=-5;exitPerimeter=0;" edge="1" parent="1" source="aFjqrJb6DufjrJTZvq-2-3" target="aFjqrJb6DufjrJTZvq-2-7">
          <mxGeometry x="0.0026" width="80" relative="1" as="geometry">
            <mxPoint x="150" y="410" as="sourcePoint" />
            <mxPoint x="535" y="410" as="targetPoint" />
            <mxPoint as="offset" />
          </mxGeometry>
        </mxCell>
        <mxCell id="aFjqrJb6DufjrJTZvq-2-36" value="OSCP / CRL Check for Server Certificate (Optional)" style="html=1;verticalAlign=bottom;endArrow=classic;curved=0;rounded=0;exitX=1;exitY=0;exitDx=0;exitDy=5;exitPerimeter=0;entryX=0;entryY=0;entryDx=0;entryDy=5;entryPerimeter=0;endFill=1;" edge="1" parent="1" source="aFjqrJb6DufjrJTZvq-2-34" target="aFjqrJb6DufjrJTZvq-2-35">
          <mxGeometry width="80" relative="1" as="geometry">
            <mxPoint x="240" y="580" as="sourcePoint" />
            <mxPoint x="590" y="580" as="targetPoint" />
            <mxPoint as="offset" />
          </mxGeometry>
        </mxCell>
        <mxCell id="aFjqrJb6DufjrJTZvq-2-37" value="Server Certificate Status" style="html=1;verticalAlign=bottom;endArrow=none;curved=0;rounded=0;entryX=0;entryY=1;entryDx=0;entryDy=-5;entryPerimeter=0;startArrow=open;startFill=0;endFill=0;shadow=0;dashed=1;exitX=1;exitY=1;exitDx=0;exitDy=-5;exitPerimeter=0;" edge="1" parent="1" source="aFjqrJb6DufjrJTZvq-2-34" target="aFjqrJb6DufjrJTZvq-2-35">
          <mxGeometry x="0.003" width="80" relative="1" as="geometry">
            <mxPoint x="340" y="620" as="sourcePoint" />
            <mxPoint x="690" y="620" as="targetPoint" />
            <mxPoint as="offset" />
          </mxGeometry>
        </mxCell>
        <mxCell id="aFjqrJb6DufjrJTZvq-2-51" value="&lt;div&gt;ServerKeyExchange&lt;/div&gt;&lt;div&gt;(If Required, e.g., for DHE/ECDHE)&lt;/div&gt;&lt;div align=&quot;left&quot;&gt;&lt;ul&gt;&lt;li&gt;Key Exchange Parameters (e.g., DH Params)&lt;/li&gt;&lt;li&gt;Signed with Server&#39;s Private Key&lt;/li&gt;&lt;/ul&gt;&lt;/div&gt;" style="html=1;verticalAlign=bottom;endArrow=none;curved=0;rounded=0;exitX=1;exitY=0;exitDx=0;exitDy=5;exitPerimeter=0;entryX=0;entryY=0;entryDx=0;entryDy=5;entryPerimeter=0;endFill=0;startArrow=classic;startFill=1;" edge="1" parent="1" source="aFjqrJb6DufjrJTZvq-2-47" target="aFjqrJb6DufjrJTZvq-2-49">
          <mxGeometry width="80" relative="1" as="geometry">
            <mxPoint x="80" y="760" as="sourcePoint" />
            <mxPoint x="430" y="760" as="targetPoint" />
            <mxPoint as="offset" />
          </mxGeometry>
        </mxCell>
        <mxCell id="aFjqrJb6DufjrJTZvq-2-45" value="&lt;div&gt;Certificate Request&lt;br&gt;&lt;div align=&quot;left&quot;&gt;&lt;ul&gt;&lt;li&gt;Supported Signature Algorithms for Client Cert&lt;/li&gt;&lt;li&gt;Requested CA List&lt;/li&gt;&lt;/ul&gt;&lt;/div&gt;&lt;/div&gt;" style="html=1;verticalAlign=bottom;endArrow=none;curved=0;rounded=0;exitX=1;exitY=0;exitDx=0;exitDy=5;exitPerimeter=0;entryX=0;entryY=0;entryDx=0;entryDy=5;entryPerimeter=0;endFill=0;startArrow=classic;startFill=1;" edge="1" parent="1" target="aFjqrJb6DufjrJTZvq-2-44" source="aFjqrJb6DufjrJTZvq-2-42">
          <mxGeometry width="80" relative="1" as="geometry">
            <mxPoint y="835" as="sourcePoint" />
            <mxPoint x="495" y="890" as="targetPoint" />
            <mxPoint as="offset" />
          </mxGeometry>
        </mxCell>
        <mxCell id="aFjqrJb6DufjrJTZvq-2-46" value="&lt;div&gt;Client Certificate Chain&lt;/div&gt;&lt;div&gt;(X.509 Cert Signed by CA)&lt;/div&gt;&lt;div&gt;&lt;br&gt;&lt;/div&gt;" style="html=1;verticalAlign=bottom;endArrow=open;curved=0;rounded=0;entryX=0;entryY=1;entryDx=0;entryDy=-5;entryPerimeter=0;startArrow=none;startFill=0;endFill=0;shadow=0;dashed=1;exitX=1;exitY=1;exitDx=0;exitDy=-5;exitPerimeter=0;" edge="1" parent="1" target="aFjqrJb6DufjrJTZvq-2-44" source="aFjqrJb6DufjrJTZvq-2-42">
          <mxGeometry width="80" relative="1" as="geometry">
            <mxPoint y="875" as="sourcePoint" />
            <mxPoint x="595" y="930" as="targetPoint" />
            <mxPoint as="offset" />
          </mxGeometry>
        </mxCell>
        <mxCell id="aFjqrJb6DufjrJTZvq-2-60" value="ServerHelloDone" style="html=1;verticalAlign=bottom;endArrow=none;curved=0;rounded=0;exitX=1;exitY=0;exitDx=0;exitDy=5;exitPerimeter=0;entryX=0;entryY=0;entryDx=0;entryDy=5;entryPerimeter=0;endFill=0;startArrow=classic;startFill=1;" edge="1" parent="1" source="aFjqrJb6DufjrJTZvq-2-59" target="aFjqrJb6DufjrJTZvq-2-57">
          <mxGeometry width="80" relative="1" as="geometry">
            <mxPoint x="110" y="990" as="sourcePoint" />
            <mxPoint x="460" y="990" as="targetPoint" />
            <mxPoint as="offset" />
          </mxGeometry>
        </mxCell>
        <mxCell id="aFjqrJb6DufjrJTZvq-2-59" value="" style="html=1;points=[[0,0,0,0,5],[0,1,0,0,-5],[1,0,0,0,5],[1,1,0,0,-5]];perimeter=orthogonalPerimeter;outlineConnect=0;targetShapes=umlLifeline;portConstraint=eastwest;newEdgeStyle={&quot;curved&quot;:0,&quot;rounded&quot;:0};" vertex="1" parent="1">
          <mxGeometry x="90" y="950" width="10" height="10" as="geometry" />
        </mxCell>
        <mxCell id="aFjqrJb6DufjrJTZvq-2-62" value="OSCP / CRL Check for Client Certificate (Optional)" style="html=1;verticalAlign=bottom;endArrow=classic;curved=0;rounded=0;exitX=1;exitY=0;exitDx=0;exitDy=5;exitPerimeter=0;entryX=0;entryY=0;entryDx=0;entryDy=5;entryPerimeter=0;endFill=1;" edge="1" parent="1" source="aFjqrJb6DufjrJTZvq-2-61" target="aFjqrJb6DufjrJTZvq-2-64">
          <mxGeometry width="80" relative="1" as="geometry">
            <mxPoint x="600" y="1100" as="sourcePoint" />
            <mxPoint x="1125" y="1045" as="targetPoint" />
            <mxPoint as="offset" />
          </mxGeometry>
        </mxCell>
        <mxCell id="aFjqrJb6DufjrJTZvq-2-63" value="Client Certificate Status" style="html=1;verticalAlign=bottom;endArrow=none;curved=0;rounded=0;entryX=0;entryY=1;entryDx=0;entryDy=-5;entryPerimeter=0;startArrow=open;startFill=0;endFill=0;shadow=0;dashed=1;exitX=1;exitY=1;exitDx=0;exitDy=-5;exitPerimeter=0;" edge="1" parent="1" source="aFjqrJb6DufjrJTZvq-2-61" target="aFjqrJb6DufjrJTZvq-2-64">
          <mxGeometry width="80" relative="1" as="geometry">
            <mxPoint x="700" y="1140" as="sourcePoint" />
            <mxPoint x="1125" y="1085" as="targetPoint" />
            <mxPoint as="offset" />
          </mxGeometry>
        </mxCell>
        <mxCell id="aFjqrJb6DufjrJTZvq-2-66" value="&lt;div&gt;Verify Server Certificate&lt;/div&gt;&lt;div align=&quot;left&quot;&gt;&lt;ul&gt;&lt;li&gt;Chain to Trusted CA&lt;/li&gt;&lt;li&gt;Validity Dates&lt;/li&gt;&lt;li&gt;Hostname Match&lt;/li&gt;&lt;li&gt;EKU: clientAuth&lt;/li&gt;&lt;li&gt;Revocation Status&lt;/li&gt;&lt;/ul&gt;&lt;/div&gt;" style="html=1;verticalAlign=bottom;endArrow=classic;curved=0;rounded=0;exitX=1;exitY=0;exitDx=0;exitDy=5;exitPerimeter=0;entryX=0;entryY=0;entryDx=0;entryDy=5;entryPerimeter=0;endFill=1;" edge="1" parent="1" source="aFjqrJb6DufjrJTZvq-2-65" target="aFjqrJb6DufjrJTZvq-2-68">
          <mxGeometry width="80" relative="1" as="geometry">
            <mxPoint x="455" y="1175" as="sourcePoint" />
            <mxPoint x="1125" y="1175" as="targetPoint" />
            <mxPoint as="offset" />
          </mxGeometry>
        </mxCell>
        <mxCell id="aFjqrJb6DufjrJTZvq-2-67" value="Server Certificate Verified" style="html=1;verticalAlign=bottom;endArrow=none;curved=0;rounded=0;entryX=0;entryY=1;entryDx=0;entryDy=-5;entryPerimeter=0;startArrow=open;startFill=0;endFill=0;shadow=0;dashed=1;exitX=1;exitY=1;exitDx=0;exitDy=-5;exitPerimeter=0;" edge="1" parent="1" source="aFjqrJb6DufjrJTZvq-2-65" target="aFjqrJb6DufjrJTZvq-2-68">
          <mxGeometry x="0.0026" width="80" relative="1" as="geometry">
            <mxPoint x="455" y="1215" as="sourcePoint" />
            <mxPoint x="1125" y="1215" as="targetPoint" />
            <mxPoint as="offset" />
          </mxGeometry>
        </mxCell>
        <mxCell id="aFjqrJb6DufjrJTZvq-2-71" value="ClientKeyExchange&lt;br&gt;&lt;div align=&quot;left&quot;&gt;&lt;ul&gt;&lt;li&gt;Pre-master secret (Encrypted with Server&#39;s Public Key) or&lt;/li&gt;&lt;li&gt;Client DH parameters (for DHE)&lt;/li&gt;&lt;/ul&gt;&lt;/div&gt;" style="html=1;verticalAlign=bottom;endArrow=classic;curved=0;rounded=0;exitX=1;exitY=0;exitDx=0;exitDy=5;exitPerimeter=0;entryX=0;entryY=0;entryDx=0;entryDy=5;entryPerimeter=0;endFill=1;startArrow=none;startFill=0;" edge="1" parent="1" source="aFjqrJb6DufjrJTZvq-2-70" target="aFjqrJb6DufjrJTZvq-2-73">
          <mxGeometry width="80" relative="1" as="geometry">
            <mxPoint x="115" y="1100" as="sourcePoint" />
            <mxPoint x="480" y="1175" as="targetPoint" />
            <mxPoint as="offset" />
          </mxGeometry>
        </mxCell>
        <mxCell id="aFjqrJb6DufjrJTZvq-2-85" value="CertificateVerify&lt;br&gt;&lt;div align=&quot;left&quot;&gt;&lt;ul&gt;&lt;li&gt;Digitally Signed Hash of All Previous Handshake Messages&lt;/li&gt;&lt;li&gt;Proves Possession of Client&#39;s Private Key&lt;/li&gt;&lt;/ul&gt;&lt;/div&gt;" style="html=1;verticalAlign=bottom;endArrow=classic;curved=0;rounded=0;exitX=1;exitY=0;exitDx=0;exitDy=5;exitPerimeter=0;endFill=1;startArrow=none;startFill=0;entryX=0;entryY=0;entryDx=0;entryDy=5;entryPerimeter=0;" edge="1" parent="1" source="aFjqrJb6DufjrJTZvq-2-84" target="aFjqrJb6DufjrJTZvq-2-87">
          <mxGeometry width="80" relative="1" as="geometry">
            <mxPoint x="290" y="1240" as="sourcePoint" />
            <mxPoint x="290" y="1360" as="targetPoint" />
            <mxPoint as="offset" />
          </mxGeometry>
        </mxCell>
        <mxCell id="aFjqrJb6DufjrJTZvq-2-89" value="ChangeCipherSpec&lt;br&gt;(Switch to Negotiated Cipher Suite for Encryption)" style="html=1;verticalAlign=bottom;endArrow=classic;curved=0;rounded=0;exitX=1;exitY=0;exitDx=0;exitDy=5;exitPerimeter=0;endFill=1;startArrow=none;startFill=0;entryX=0;entryY=0;entryDx=0;entryDy=5;entryPerimeter=0;" edge="1" parent="1" source="aFjqrJb6DufjrJTZvq-2-88" target="aFjqrJb6DufjrJTZvq-2-92">
          <mxGeometry width="80" relative="1" as="geometry">
            <mxPoint x="425" y="1280" as="sourcePoint" />
            <mxPoint x="580" y="1385" as="targetPoint" />
            <mxPoint as="offset" />
          </mxGeometry>
        </mxCell>
        <mxCell id="aFjqrJb6DufjrJTZvq-2-94" value="ClientFinished&lt;br&gt;&lt;div align=&quot;left&quot;&gt;&lt;ul&gt;&lt;li&gt;HMAC Over Handshake Transcript (Client Key)&lt;/li&gt;&lt;li&gt;Encrypted Pseudorandom Function (PRF):&lt;br&gt;- Master Secret&lt;br&gt;- Finished Label&lt;br&gt;- Hash of All Handshake Messages&lt;/li&gt;&lt;li&gt;Verifies Integrity and Key Derivation&lt;/li&gt;&lt;/ul&gt;&lt;/div&gt;" style="html=1;verticalAlign=bottom;endArrow=classic;curved=0;rounded=0;exitX=1;exitY=0;exitDx=0;exitDy=5;exitPerimeter=0;endFill=1;startArrow=none;startFill=0;entryX=0;entryY=0;entryDx=0;entryDy=5;entryPerimeter=0;" edge="1" parent="1" source="aFjqrJb6DufjrJTZvq-2-93" target="aFjqrJb6DufjrJTZvq-2-95">
          <mxGeometry width="80" relative="1" as="geometry">
            <mxPoint x="500" y="1360" as="sourcePoint" />
            <mxPoint x="520" y="1495" as="targetPoint" />
            <mxPoint as="offset" />
          </mxGeometry>
        </mxCell>
        <mxCell id="aFjqrJb6DufjrJTZvq-2-97" value="ChangeCipherSpec&lt;br&gt;(Switch to Negotiated Cipher Suite for Encryption)" style="html=1;verticalAlign=bottom;endArrow=none;curved=0;rounded=0;exitX=1;exitY=0;exitDx=0;exitDy=5;exitPerimeter=0;endFill=0;startArrow=classic;startFill=1;entryX=0;entryY=0;entryDx=0;entryDy=5;entryPerimeter=0;" edge="1" parent="1" source="aFjqrJb6DufjrJTZvq-2-96" target="aFjqrJb6DufjrJTZvq-2-98">
          <mxGeometry width="80" relative="1" as="geometry">
            <mxPoint x="590" y="1550" as="sourcePoint" />
            <mxPoint x="610" y="1685" as="targetPoint" />
            <mxPoint as="offset" />
          </mxGeometry>
        </mxCell>
        <mxCell id="aFjqrJb6DufjrJTZvq-2-100" value="ServerFinished&lt;br&gt;&lt;div align=&quot;left&quot;&gt;&lt;ul&gt;&lt;li&gt;HMAC Over Handshake Transcript (Server Key)&lt;/li&gt;&lt;li&gt;Encrypted Pseudorandom Function (PRF):&lt;br&gt;- Master Secret&lt;br&gt;- Finished Label&lt;br&gt;- Hash of All Handshake Messages&lt;/li&gt;&lt;li&gt;Verifies Integrity from Server Side&lt;/li&gt;&lt;/ul&gt;&lt;/div&gt;" style="html=1;verticalAlign=bottom;endArrow=none;curved=0;rounded=0;exitX=1;exitY=0;exitDx=0;exitDy=5;exitPerimeter=0;endFill=0;startArrow=classic;startFill=1;entryX=0;entryY=0;entryDx=0;entryDy=5;entryPerimeter=0;" edge="1" parent="1" source="aFjqrJb6DufjrJTZvq-2-99" target="aFjqrJb6DufjrJTZvq-2-101">
          <mxGeometry width="80" relative="1" as="geometry">
            <mxPoint x="1115" y="1400" as="sourcePoint" />
            <mxPoint x="1060" y="1595" as="targetPoint" />
            <mxPoint as="offset" />
          </mxGeometry>
        </mxCell>
        <mxCell id="aFjqrJb6DufjrJTZvq-2-103" value="Encrypted Application Data&lt;br&gt;&lt;div&gt;&lt;div align=&quot;center&quot;&gt;(Both Sides Have the Following)&lt;/div&gt;&lt;div align=&quot;left&quot;&gt;&lt;ul&gt;&lt;li&gt;Verified Peer Identity&lt;/li&gt;&lt;li&gt;Session Keys for Encryption &amp;amp; Integrity&lt;/li&gt;&lt;/ul&gt;&lt;/div&gt;&lt;/div&gt;" style="html=1;verticalAlign=bottom;endArrow=classic;curved=0;rounded=0;exitX=1;exitY=0;exitDx=0;exitDy=5;exitPerimeter=0;endFill=1;startArrow=classic;startFill=1;entryX=0;entryY=0;entryDx=0;entryDy=5;entryPerimeter=0;" edge="1" parent="1" source="aFjqrJb6DufjrJTZvq-2-102" target="aFjqrJb6DufjrJTZvq-2-104">
          <mxGeometry width="80" relative="1" as="geometry">
            <mxPoint x="725" y="1820" as="sourcePoint" />
            <mxPoint x="580" y="1875" as="targetPoint" />
            <mxPoint as="offset" />
          </mxGeometry>
        </mxCell>
      </root>
    </mxGraphModel>
  </diagram>
</mxfile>
